<?xml version="1.0" encoding="UTF-8" standalone="no"?><!DOCTYPE svg PUBLIC "-//W3C//DTD SVG 1.1//EN" "http://www.w3.org/Graphics/SVG/1.1/DTD/svg11.dtd"><svg width="100%" height="100%" viewBox="0 0 1371 246" version="1.1" xmlns="http://www.w3.org/2000/svg" xmlns:xlink="http://www.w3.org/1999/xlink" xml:space="preserve" xmlns:serif="http://www.serif.com/" style="fill-rule:evenodd;clip-rule:evenodd;stroke-linejoin:round;stroke-miterlimit:2;"><g><path d="M827.554,54.722c10.04,-8.621 20.836,-3.985 25.109,3.817c1.544,2.819 1.361,3.03 1.361,95.946c-0,25.179 3.97,57.37 -23.779,75.841c-29.439,19.595 -96.978,11.741 -87.607,-13.781c8.389,-22.848 24.418,-4.048 43.936,-3.785c29.883,0.404 33.886,-16.413 34.391,-17.844c2.074,-5.872 4.064,-22.54 0.982,-18.476c-12.785,16.856 -71.722,31.812 -85.101,-21.11c-1.737,-6.872 -1.762,-6.97 -1.31,-88.592c0.118,-21.365 30.85,-23.613 31.185,0.827c0.625,45.674 -2.54,74.235 4.43,85.084c8.821,13.727 29.688,10.525 32.897,9.538c22.062,-6.786 19.236,-22.593 19.236,-74.754c0,-25.208 -0.655,-25.741 4.27,-32.71Z" style="fill:#000932;fill-opacity:1;"/><path d="M314.315,171.472c-0.642,-0.729 -0.561,-0.675 -1.167,-1.324c-28.914,-30.966 -20.602,-87.209 9.266,-108.901c44.627,-32.411 90.59,-2.177 102.144,33.719c10.438,32.426 -6.76,34.611 -7.16,34.739c-6.593,2.118 -88.267,0.189 -90.105,1.077c-2.963,1.432 8.227,32.671 38.763,32.458c16.39,-0.114 21.13,-3.508 27.963,-7.417c1.384,-0.792 13.026,-7.453 19.892,-1.147c26.21,24.072 -56.496,60.326 -99.596,16.795l18.219,-81.827c-0.619,1.069 -8.401,14.502 -4.663,14.72c1.485,0.087 59.609,-0.083 64.671,0.089c4.731,0.16 1.423,-14.055 -11.038,-22.405c-11.205,-7.509 -23.342,-5.788 -25.4,-5.496c-15.985,2.266 -19.295,7.574 -23.571,13.092l-18.219,81.827Z" style="fill:#000932;fill-opacity:1;"/><path d="M260.511,175.595c-38.788,33.526 -128.103,17.664 -117.618,-68.251c7.822,-64.088 95.407,-85.477 125.846,-18.422c3.574,7.873 9.977,28.833 2.062,36.533c-6.146,5.98 -7.179,5.164 -58.718,5.164c-37.995,0 -38.414,-0.133 -38.723,0.747c-0.166,0.472 6.22,37.621 51.093,31.072c14.206,-2.073 24.373,-16.821 36.241,-7.676c10.725,8.264 0.909,19.573 -0.183,20.832l-76.109,-91.884c-9.488,8.014 -11.14,19.724 -10.476,20.365c0.74,0.714 40.279,0.057 65.46,0.377c4.313,0.055 1.267,-14.736 -12.64,-23.237c-10.545,-6.447 -29.432,-7.85 -42.345,2.495l76.109,91.884Z" style="fill:#000932;fill-opacity:1;"/><path d="M494.788,85.379c-9.393,11.172 -8.266,12.458 -8.266,56.688c-0,34.561 1.424,39.941 -7.986,45.341c-6.692,3.84 -22.999,2.643 -23.3,-14.71c-0.234,-13.491 -0.024,-95.962 -0.003,-104.306c0.067,-26.538 31.367,-21.551 31.211,-2.488c-0.007,0.821 -0.116,1.637 -0.139,2.458c-0.126,4.421 1.271,-1.568 13.087,-10.655c18.444,-14.184 52.98,-15.314 67.564,6.728c9.932,15.011 9.888,28.229 9.605,107.434c-0.085,23.653 -30.751,22.405 -31.353,1.646c-1.36,-46.929 5.276,-80.877 -9.134,-92.272c-1.353,-1.07 -8.045,-6.361 -20.978,-4.992c-14.426,1.527 -19.782,8.666 -20.307,9.128Z" style="fill:#000932;fill-opacity:1;"/><path d="M148.098,34.867c-13.253,6.01 -48.883,-0.71 -49.819,3.64c-0.584,2.717 0.789,135.399 -0.741,139.879c-4.955,14.503 -32.928,17.345 -33.086,-7.345c-0.193,-30.228 0.474,-132.499 -0.419,-133.403c-1.824,-1.846 -41.071,1.753 -48.214,-2.227c-14.979,-8.346 -6.591,-27.758 4.995,-27.838c9.81,-0.068 119.293,-0.823 122.63,0.167c1.139,0.338 9.041,2.682 10.893,10.096c2.981,11.934 -5.648,16.534 -6.241,17.032Z" style="fill:#000932;fill-opacity:1;"/><path d="M703.407,84.575c-0.914,0.934 -7.009,7.163 -15.992,3.307c-7.002,-3.006 -11.117,-17.138 -38.22,-14.285c-17.432,1.835 -18.691,20.003 -4.833,26.766c20.493,10.001 64.975,9.371 65.057,49.158c0.102,49.395 -78.683,54.972 -106.233,19.569c-10.835,-13.923 6.791,-31.687 21.776,-17.69c9.026,8.431 21.219,18.796 44.828,14.332c13.128,-2.482 18.167,-20.61 0.115,-27.895c-23.751,-9.585 -67.584,-11.949 -64.525,-52.057c3.338,-43.773 73.439,-49.321 97.458,-18.934c2.52,3.188 3.501,8.977 3.641,9.802c0.756,4.464 -0.691,4.125 -3.071,7.926Z" style="fill:#000932;fill-opacity:1;"/></g><g><path d="M957.986,45.063c20.71,1.324 26.215,21.969 25.686,30.836c-0.236,3.961 -0.024,10.099 -0.021,14.486c0.004,6.217 0.441,13.217 0.253,18.681c-0.023,0.669 -0.402,1.309 -0.658,1.895c-4.46,10.24 -17.466,11.271 -24.756,11.516c-0.549,0.018 -0.719,0.053 -1.267,0.091c-1.39,0.097 -7.088,0.166 -7.088,0.166l-17.074,-0.11c-13.189,1.15 -14.179,8.714 -15.113,16.306l0,16.777c1.365,4.682 3.915,6.728 7.702,6.023c3.706,0.172 6.635,1.131 6.947,4.735l0.061,11.954c-0.893,3.493 -2.712,4.802 -5.059,4.868l-6.247,-0.062c-10.954,-0.925 -17.757,-5.254 -22.306,-11.447c-3.212,-4.373 -6.122,-12.525 -6.4,-15.744c-0.003,-0.03 0,-0.064 0,-0.089c-0.028,-2.622 0.02,-62.404 0.092,-74.896c0.002,-0.387 -0.047,-0.461 0.216,-1.655c4.498,-20.374 16.526,-30.456 32.36,-33.615c1.945,-0.388 4.007,-0.355 6.113,-0.329l26.559,-0.387Z" style="fill:#4f5b93;"/><path d="M977.921,47.262l-0.148,-2.067c0,0 43.981,-0.219 57.792,0c20.82,0.33 44.452,25.871 44.698,52.986c0.105,11.543 -4.727,24.318 -11.617,32.579c-7.784,9.333 -21.276,18.392 -33.99,18.838c-12.325,0.432 -39.959,0.282 -39.959,0.282l0.061,28.762c0,0 -0.874,9.636 -19.015,9.543c-14.615,-0.075 -17.92,-9.456 -17.92,-9.456l0.568,-49.731c1.441,-0.037 2.948,-0.099 4.01,-0.207c5.79,-0.588 19.343,-0.352 24.673,-11.627l5.684,0.014l33.543,0c11.293,-0.966 19.703,-11.099 19.436,-20.283c-0.293,-10.079 -10.809,-19.164 -18.891,-19.465c-9.387,-0.349 -36.142,0 -36.142,0l-0.106,-2.475c0.619,-7.505 -1.528,-20.066 -12.678,-27.694Z" style="fill:#4f5b93;"/><ellipse cx="930.857" cy="77.562" rx="7.276" ry="7.355" style="fill:#d6deff;"/><path d="M1315.994,45.319c3.314,0 41.952,9.182 42.778,53.795c0.681,36.744 -38.683,51.199 -46.807,51.199l-38.873,-0.186l-0.231,29.025c-0.457,1.076 -0.833,9.209 -18.407,9.031c-16.26,-0.165 -18.122,-8.34 -18.353,-9.339l0.462,-121.337c0,-3.463 1.166,-6.36 3.497,-8.691c2.331,-2.331 5.228,-3.497 8.691,-3.497l67.243,-0Zm-10.618,72.148c1.779,0.053 6.074,0.01 6.074,0.01c0.968,0.039 20.493,-5.815 18.657,-21.051c-1.331,-11.049 -10.078,-16.986 -18.128,-18.698c-2.229,-0.474 -4.49,-0.052 -6.714,-0.263l-32.109,0.173l-0.06,39.751l32.28,0.077Z" style="fill:#4f5b93;fill-rule:nonzero;"/><path d="M1129.912,98.656l53.183,0l0,-40.842c-0.227,-5.801 2.278,-12.316 17.888,-12.402c18.75,-0.104 17.618,6.075 18.176,12.402l0,117.517c0.151,6.732 2.35,12.813 -16.996,12.855c-19.814,0.042 -19.34,-7.023 -19.068,-12.855l0,-40.391l-53.183,0l0,40.391c0.151,6.732 2.35,12.813 -16.996,12.855c-19.814,0.042 -19.34,-7.023 -19.068,-12.855l0,-117.517c-0.227,-5.801 2.278,-12.316 17.888,-12.402c18.75,-0.104 17.618,6.075 18.176,12.402l0,40.842Z" style="fill:#4f5b93;"/></g></svg>